<svg width="187" height="57" viewBox="0 0 187 57" fill="none" xmlns="http://www.w3.org/2000/svg">
<path d="M27.5938 12.837C28.5153 8.99844 33.9498 8.90364 35.0048 12.7077C35.8666 15.8162 39.3141 17.4154 42.2421 16.0565L42.5434 15.9174C46.0498 14.2898 49.4077 18.4354 47.0825 21.5343C45.1379 24.1267 46.0506 27.8532 48.9763 29.2495C52.4215 30.8937 51.3424 36.1585 47.4128 36.316C44.1891 36.4451 41.8287 39.475 42.5458 42.6333C43.4119 46.4478 38.6309 48.9018 36.0496 45.9884L35.8733 45.7893C33.7315 43.372 29.9365 43.4382 27.8804 45.9288L27.7111 46.134C25.233 49.1356 20.3693 46.85 21.1018 43.0076C21.6893 39.9254 19.3946 37.065 16.3173 36.8744L16.0172 36.864C12.0847 36.8435 10.8225 31.6197 14.2081 29.8564C17.0835 28.3588 17.8655 24.6028 15.8315 22.0798C13.3996 19.064 16.6108 14.8038 20.1718 16.3079L20.4778 16.4364C23.4515 17.6925 26.841 15.9738 27.5938 12.837Z" stroke="url(#paint0_linear_1432_10982)" stroke-width="1.42"/>
<path d="M37.8332 3.67364C43.1233 -1.44417 51.8107 3.57154 50.0235 10.7117C48.8454 15.4195 51.6194 20.2148 56.2843 21.5477C63.36 23.5696 63.3649 33.5957 56.2996 35.607C51.7762 36.8946 49.0355 41.4375 49.9448 46.0007L50.0442 46.4416C51.835 53.5658 43.1494 58.576 37.8603 53.4587C34.3736 50.0852 28.8338 50.0804 25.3458 53.4548C20.0559 58.573 11.3685 53.5569 13.1556 46.4167C14.3339 41.7089 11.5596 36.9138 6.89495 35.5808C-0.18135 33.5589 -0.18605 23.5314 6.87915 21.5202C11.5483 20.191 14.3181 15.3938 13.1346 10.6856C11.3443 3.56154 20.0298 -1.44736 25.3188 3.66984C28.8055 7.04304 34.3453 7.04794 37.8332 3.67364Z" stroke="url(#paint1_linear_1432_10982)" stroke-width="1.68"/>
<g filter="url(#filter0_d_1432_10982)">
<path d="M40.6551 23.6059C40.8237 23.5104 40.8237 23.2676 40.6551 23.172L31.8103 18.16C31.734 18.1168 31.6407 18.1168 31.5644 18.16L27.0121 20.7397L22.7196 23.172C22.5511 23.2676 22.5511 23.5104 22.7196 23.6059L27.0121 26.0383L31.5644 28.618C31.6407 28.6612 31.734 28.6612 31.8103 28.618L40.6551 23.6059Z" fill="#35946D"/>
</g>
<path d="M22.3369 33.8408C22.3369 33.9306 22.3852 34.0135 22.4633 34.0578L31.3152 39.0738C31.4814 39.168 31.6875 39.048 31.6875 38.8569V28.8328C31.6875 28.743 31.6392 28.6601 31.5611 28.6159L22.7092 23.5998C22.543 23.5056 22.3369 23.6257 22.3369 23.8168V33.8408Z" fill="#A78F5D"/>
<path d="M40.7388 34.0578C40.8169 34.0136 40.8652 33.9307 40.8652 33.8409V23.8168C40.8652 23.6258 40.6592 23.5057 40.4929 23.5999L31.6411 28.6159C31.5629 28.6602 31.5146 28.7431 31.5146 28.8329V38.857C31.5146 39.048 31.7207 39.1681 31.8869 39.0739L40.7388 34.0578Z" fill="#2F5F47"/>
<path d="M26.8892 25.9375L22.7196 23.5748C22.5511 23.4792 22.5511 23.2364 22.7196 23.1409L26.8892 20.7782C26.9654 20.7349 27.0588 20.7349 27.135 20.7782L31.3045 23.1409C31.4731 23.2364 31.4731 23.4792 31.3045 23.5748L27.135 25.9375C27.0588 25.9807 26.9654 25.9807 26.8892 25.9375Z" fill="#7DC79D"/>
<path d="M72.5669 28.8769H79.2299V30.0295H72.5669V28.8769ZM72.7109 35.378H71.3789V22.772H80.0229V23.9246H72.7109V35.378ZM82.3289 35.378V25.9235H83.5529V28.4987L83.4269 28.0485C83.6909 27.3282 84.1359 26.7819 84.7599 26.4098C85.3839 26.0256 86.1589 25.8335 87.0829 25.8335V27.0761C87.0349 27.0761 86.9869 27.0761 86.9389 27.0761C86.8909 27.0641 86.8429 27.0581 86.7949 27.0581C85.7979 27.0581 85.0179 27.3642 84.4539 27.9765C83.8889 28.5768 83.6069 29.4352 83.6069 30.5517V35.378H82.3289ZM94.6369 35.378V33.289L94.5829 32.9468V29.4532C94.5829 28.6488 94.3549 28.0305 93.8989 27.5983C93.4549 27.1661 92.7889 26.95 91.8999 26.95C91.2879 26.95 90.7059 27.0521 90.1529 27.2562C89.6009 27.4603 89.1329 27.7304 88.7489 28.0665L88.1719 27.1121C88.6529 26.7039 89.2289 26.3918 89.9009 26.1756C90.5729 25.9475 91.2819 25.8335 92.0259 25.8335C93.2509 25.8335 94.1929 26.1396 94.8539 26.7519C95.5259 27.3522 95.8619 28.2706 95.8619 29.5072V35.378H94.6369ZM91.3779 35.468C90.6699 35.468 90.0509 35.354 89.5229 35.1259C89.0069 34.8858 88.6109 34.5616 88.3339 34.1534C88.0579 33.7332 87.9199 33.253 87.9199 32.7127C87.9199 32.2205 88.0339 31.7763 88.2619 31.3801C88.5029 30.9719 88.8869 30.6478 89.4149 30.4076C89.9549 30.1555 90.6759 30.0295 91.5759 30.0295H94.8349V30.9839H91.6119C90.6999 30.9839 90.0629 31.146 89.7029 31.4701C89.3549 31.7943 89.1809 32.1965 89.1809 32.6767C89.1809 33.217 89.3909 33.6492 89.8109 33.9733C90.2309 34.2975 90.8199 34.4596 91.5759 34.4596C92.2959 34.4596 92.9149 34.2975 93.4309 33.9733C93.9589 33.6372 94.3429 33.1569 94.5829 32.5326L94.8719 33.4151C94.6309 34.0394 94.2109 34.5376 93.6109 34.9098C93.0229 35.2819 92.2779 35.468 91.3779 35.468ZM103.261 35.468C102.324 35.468 101.484 35.2639 100.739 34.8557C100.007 34.4355 99.4309 33.8653 99.0109 33.1449C98.5899 32.4126 98.3799 31.5782 98.3799 30.6418C98.3799 29.6933 98.5899 28.8589 99.0109 28.1386C99.4309 27.4182 100.007 26.854 100.739 26.4458C101.484 26.0376 102.324 25.8335 103.261 25.8335C104.065 25.8335 104.791 25.9896 105.44 26.3017C106.088 26.6139 106.598 27.0821 106.97 27.7064L106.016 28.3547C105.692 27.8745 105.29 27.5203 104.809 27.2922C104.329 27.0641 103.807 26.95 103.243 26.95C102.57 26.95 101.964 27.1061 101.424 27.4182C100.884 27.7184 100.457 28.1446 100.145 28.6968C99.8329 29.2491 99.6769 29.8974 99.6769 30.6418C99.6769 31.3861 99.8329 32.0344 100.145 32.5867C100.457 33.1389 100.884 33.5711 101.424 33.8833C101.964 34.1834 102.57 34.3335 103.243 34.3335C103.807 34.3335 104.329 34.2194 104.809 33.9913C105.29 33.7632 105.692 33.4151 106.016 32.9468L106.97 33.5951C106.598 34.2074 106.088 34.6757 105.44 34.9998C104.791 35.312 104.065 35.468 103.261 35.468ZM112.577 35.468C111.689 35.468 111.004 35.2279 110.524 34.7477C110.044 34.2675 109.804 33.5891 109.804 32.7127V23.8345H111.082V32.6407C111.082 33.193 111.22 33.6192 111.497 33.9193C111.785 34.2194 112.193 34.3695 112.721 34.3695C113.285 34.3695 113.754 34.2074 114.126 33.8833L114.576 34.8017C114.324 35.0298 114.018 35.1979 113.658 35.306C113.309 35.414 112.949 35.468 112.577 35.468ZM108.111 26.986V25.9235H113.964V26.986H108.111ZM122.828 35.378V33.289L122.774 32.9468V29.4532C122.774 28.6488 122.546 28.0305 122.09 27.5983C121.646 27.1661 120.98 26.95 120.091 26.95C119.479 26.95 118.897 27.0521 118.344 27.2562C117.792 27.4603 117.324 27.7304 116.94 28.0665L116.363 27.1121C116.844 26.7039 117.42 26.3918 118.092 26.1756C118.765 25.9475 119.473 25.8335 120.217 25.8335C121.442 25.8335 122.384 26.1396 123.045 26.7519C123.717 27.3522 124.053 28.2706 124.053 29.5072V35.378H122.828ZM119.569 35.468C118.861 35.468 118.242 35.354 117.714 35.1259C117.198 34.8858 116.802 34.5616 116.525 34.1534C116.249 33.7332 116.111 33.253 116.111 32.7127C116.111 32.2205 116.225 31.7763 116.453 31.3801C116.694 30.9719 117.078 30.6478 117.606 30.4076C118.146 30.1555 118.867 30.0295 119.767 30.0295H123.027V30.9839H119.803C118.891 30.9839 118.254 31.146 117.894 31.4701C117.546 31.7943 117.372 32.1965 117.372 32.6767C117.372 33.217 117.582 33.6492 118.002 33.9733C118.422 34.2975 119.011 34.4596 119.767 34.4596C120.487 34.4596 121.106 34.2975 121.622 33.9733C122.15 33.6372 122.534 33.1569 122.774 32.5326L123.063 33.4151C122.822 34.0394 122.402 34.5376 121.802 34.9098C121.214 35.2819 120.469 35.468 119.569 35.468ZM127.526 35.378V22.0157H128.804V35.378H127.526ZM140.821 35.486C139.885 35.486 138.984 35.336 138.12 35.0358C137.267 34.7237 136.607 34.3275 136.139 33.8473L136.661 32.8208C137.105 33.253 137.7 33.6192 138.444 33.9193C139.2 34.2074 139.993 34.3515 140.821 34.3515C141.613 34.3515 142.256 34.2555 142.748 34.0634C143.252 33.8593 143.618 33.5891 143.846 33.253C144.087 32.9168 144.207 32.5447 144.207 32.1365C144.207 31.6442 144.063 31.248 143.774 30.9479C143.498 30.6478 143.132 30.4136 142.676 30.2456C142.22 30.0655 141.715 29.9094 141.163 29.7773C140.611 29.6453 140.059 29.5072 139.506 29.3632C138.954 29.2071 138.444 29.003 137.976 28.7509C137.519 28.4987 137.147 28.1686 136.859 27.7604C136.583 27.3402 136.445 26.7939 136.445 26.1216C136.445 25.4973 136.607 24.9271 136.931 24.4108C137.267 23.8826 137.778 23.4624 138.462 23.1502C139.146 22.8261 140.023 22.664 141.091 22.664C141.799 22.664 142.502 22.766 143.198 22.9701C143.894 23.1622 144.495 23.4324 144.999 23.7805L144.549 24.843C144.009 24.4829 143.432 24.2187 142.82 24.0506C142.22 23.8826 141.637 23.7985 141.073 23.7985C140.317 23.7985 139.692 23.9006 139.2 24.1047C138.708 24.3088 138.342 24.5849 138.102 24.9331C137.874 25.2692 137.76 25.6534 137.76 26.0856C137.76 26.5778 137.898 26.974 138.174 27.2742C138.462 27.5743 138.834 27.8084 139.29 27.9765C139.759 28.1446 140.269 28.2946 140.821 28.4267C141.373 28.5588 141.92 28.7028 142.46 28.8589C143.012 29.015 143.516 29.2191 143.973 29.4712C144.441 29.7113 144.813 30.0355 145.089 30.4437C145.377 30.8519 145.521 31.3861 145.521 32.0464C145.521 32.6587 145.353 33.229 145.017 33.7572C144.681 34.2735 144.165 34.6937 143.468 35.0178C142.784 35.33 141.902 35.486 140.821 35.486ZM152.981 25.8335C153.749 25.8335 154.422 25.9836 154.998 26.2837C155.586 26.5718 156.042 27.016 156.367 27.6163C156.703 28.2166 156.871 28.973 156.871 29.8854V35.378H155.592V30.0115C155.592 29.015 155.34 28.2646 154.836 27.7604C154.344 27.2442 153.647 26.986 152.747 26.986C152.075 26.986 151.486 27.1241 150.982 27.4002C150.49 27.6644 150.106 28.0545 149.829 28.5708C149.565 29.075 149.433 29.6873 149.433 30.4076V35.378H148.155V22.0157H149.433V28.5168L149.181 28.0305C149.481 27.3462 149.962 26.812 150.622 26.4278C151.282 26.0316 152.069 25.8335 152.981 25.8335ZM166.249 35.378V33.289L166.195 32.9468V29.4532C166.195 28.6488 165.967 28.0305 165.511 27.5983C165.067 27.1661 164.4 26.95 163.512 26.95C162.9 26.95 162.317 27.0521 161.765 27.2562C161.213 27.4603 160.745 27.7304 160.361 28.0665L159.784 27.1121C160.264 26.7039 160.841 26.3918 161.513 26.1756C162.185 25.9475 162.894 25.8335 163.638 25.8335C164.863 25.8335 165.805 26.1396 166.465 26.7519C167.138 27.3522 167.474 28.2706 167.474 29.5072V35.378H166.249ZM162.99 35.468C162.281 35.468 161.663 35.354 161.135 35.1259C160.619 34.8858 160.222 34.5616 159.946 34.1534C159.67 33.7332 159.532 33.253 159.532 32.7127C159.532 32.2205 159.646 31.7763 159.874 31.3801C160.114 30.9719 160.499 30.6478 161.027 30.4076C161.567 30.1555 162.287 30.0295 163.188 30.0295H166.447V30.9839H163.224C162.311 30.9839 161.675 31.146 161.315 31.4701C160.967 31.7943 160.793 32.1965 160.793 32.6767C160.793 33.217 161.003 33.6492 161.423 33.9733C161.843 34.2975 162.431 34.4596 163.188 34.4596C163.908 34.4596 164.526 34.2975 165.043 33.9733C165.571 33.6372 165.955 33.1569 166.195 32.5326L166.483 33.4151C166.243 34.0394 165.823 34.5376 165.223 34.9098C164.635 35.2819 163.89 35.468 162.99 35.468ZM170.947 35.378V25.9235H172.171V28.4987L172.045 28.0485C172.309 27.3282 172.754 26.7819 173.378 26.4098C174.002 26.0256 174.777 25.8335 175.701 25.8335V27.0761C175.653 27.0761 175.605 27.0761 175.557 27.0761C175.509 27.0641 175.461 27.0581 175.413 27.0581C174.416 27.0581 173.636 27.3642 173.072 27.9765C172.507 28.5768 172.225 29.4352 172.225 30.5517V35.378H170.947ZM181.962 35.468C180.978 35.468 180.113 35.2639 179.369 34.8557C178.624 34.4355 178.042 33.8653 177.622 33.1449C177.202 32.4126 176.992 31.5782 176.992 30.6418C176.992 29.7053 177.19 28.8769 177.586 28.1566C177.994 27.4362 178.546 26.872 179.243 26.4638C179.951 26.0436 180.743 25.8335 181.62 25.8335C182.508 25.8335 183.295 26.0376 183.979 26.4458C184.675 26.842 185.222 27.4062 185.618 28.1386C186.014 28.8589 186.212 29.6933 186.212 30.6418C186.212 30.7018 186.206 30.7678 186.194 30.8399C186.194 30.8999 186.194 30.9659 186.194 31.0379H177.964V30.0835H185.51L185.005 30.4617C185.005 29.7773 184.855 29.1711 184.555 28.6428C184.267 28.1026 183.871 27.6824 183.367 27.3822C182.862 27.0821 182.28 26.932 181.62 26.932C180.972 26.932 180.389 27.0821 179.873 27.3822C179.357 27.6824 178.955 28.1026 178.666 28.6428C178.378 29.1831 178.234 29.8014 178.234 30.4977V30.6958C178.234 31.4161 178.39 32.0524 178.702 32.6047C179.027 33.1449 179.471 33.5711 180.035 33.8833C180.611 34.1834 181.266 34.3335 181.998 34.3335C182.574 34.3335 183.109 34.2314 183.601 34.0274C184.105 33.8233 184.537 33.5111 184.897 33.0909L185.618 33.9193C185.198 34.4235 184.669 34.8077 184.033 35.0718C183.409 35.336 182.718 35.468 181.962 35.468Z" fill="#35946D"/>
<defs>
<filter id="filter0_d_1432_10982" x="22.0946" y="18.1276" width="19.1856" height="11.5202" filterUnits="userSpaceOnUse" color-interpolation-filters="sRGB">
<feFlood flood-opacity="0" result="BackgroundImageFix"/>
<feColorMatrix in="SourceAlpha" type="matrix" values="0 0 0 0 0 0 0 0 0 0 0 0 0 0 0 0 0 0 127 0" result="hardAlpha"/>
<feOffset dy="0.498697"/>
<feGaussianBlur stdDeviation="0.249348"/>
<feComposite in2="hardAlpha" operator="out"/>
<feColorMatrix type="matrix" values="0 0 0 0 0 0 0 0 0 0 0 0 0 0 0 0 0 0 0.25 0"/>
<feBlend mode="normal" in2="BackgroundImageFix" result="effect1_dropShadow_1432_10982"/>
<feBlend mode="normal" in="SourceGraphic" in2="effect1_dropShadow_1432_10982" result="shape"/>
</filter>
<linearGradient id="paint0_linear_1432_10982" x1="31.3125" y1="10.9479" x2="31.9254" y2="46.0591" gradientUnits="userSpaceOnUse">
<stop stop-color="#2F5F47"/>
<stop offset="0.539762" stop-color="#35946D"/>
<stop offset="1" stop-color="#7DC79D"/>
</linearGradient>
<linearGradient id="paint1_linear_1432_10982" x1="8.62305" y1="4.44544" x2="6.89145" y2="62.28" gradientUnits="userSpaceOnUse">
<stop stop-color="#7DC79D"/>
<stop offset="0.418615" stop-color="#35946D"/>
<stop offset="1" stop-color="#A78F5D"/>
</linearGradient>
</defs>
</svg>
