<svg width="40" height="40" viewBox="0 0 40 40" fill="none" xmlns="http://www.w3.org/2000/svg">
<path d="M20.3787 19.4156C20.243 19.4154 20.1105 19.3749 19.9978 19.2994C19.885 19.2239 19.7972 19.1167 19.7454 18.9913C19.6936 18.8659 19.6801 18.728 19.7066 18.595C19.7331 18.4619 19.7984 18.3397 19.8943 18.2437L22.0849 16.0562C22.3537 15.7875 22.788 15.7875 23.0537 16.0562C23.3224 16.325 23.3224 16.7594 23.0537 17.0281L20.8662 19.2187C20.7318 19.35 20.5537 19.4156 20.3787 19.4156Z" fill="#2F2F2F"/>
<path d="M24.3699 18.6812C24.1918 18.6812 24.0168 18.6156 23.8824 18.4812L20.5355 15.1344C20.2668 14.8656 20.2668 14.4312 20.5355 14.1625C20.8043 13.8937 21.2387 13.8937 21.5043 14.1625L24.8543 17.5125C25.123 17.7813 25.123 18.2156 24.8543 18.4844C24.7199 18.6156 24.5449 18.6812 24.3699 18.6812Z" fill="#2F2F2F"/>
<path d="M12.3711 14.1687H16.0805V27.9937H12.3711V14.1687ZM17.3742 17.9468H21.0836V29.025H17.3742V17.9468Z" fill="#2F2F2F"/>
<path d="M13.4844 14.8562H15.075V12.6312C15.0781 12.6 15.1187 11.7812 14.5094 11.1219C14.05 10.6312 13.3844 10.3812 12.5312 10.3812V11.9687C12.7969 11.9687 13.1531 12.0093 13.3344 12.1968C13.4906 12.3531 13.4875 12.5906 13.4875 12.5906L13.4844 14.8562Z" fill="#2F2F2F"/>
<path d="M31.2188 20.9438C30.675 20.9438 30.2344 20.5 30.2344 19.9594V12.9938C30.2344 12.4531 30.675 12.0094 31.2188 12.0094H32.1969C32.7406 12.0094 33.1844 12.4531 33.1844 12.9938V19.9594C33.1844 20.5 32.7406 20.9438 32.1969 20.9438H31.2188Z" fill="#2F2F2F"/>
<path d="M20.9219 3.53436V5.48124H31.9094L33.9719 7.65624H37.175V3.53436H20.9219Z" fill="#ED6C30"/>
<path d="M34.6523 6.0531H36.2617V20.6468H34.6523V6.0531Z" fill="#ED6C30"/>
<path d="M21.9031 22.875L20.3906 21.925C22.5062 18.5563 26.1406 16.5469 30.1187 16.5469C33.5687 16.5469 36.8031 18.0781 38.9906 20.7469L37.6125 21.8781C35.7656 19.6219 33.0312 18.3313 30.1187 18.3313C26.7594 18.3313 23.6875 20.0312 21.9031 22.875Z" fill="#ED6C30"/>
<path d="M17.3742 28.2437V17.9562H5.08047C2.99609 17.9562 1.55859 19.3344 1.55859 21.3594V30.8281H38.2242V28.2437H17.3742Z" fill="#ED6C30"/>
<path d="M11.1441 32.2625C11.1441 35.3094 8.67227 37.7781 5.62539 37.7781C2.57539 37.7781 0.103516 35.3094 0.103516 32.2625C0.103516 29.2125 2.57539 26.75 5.62539 26.75C8.67227 26.75 11.1441 29.2125 11.1441 32.2625Z" fill="#2F2F2F"/>
<path d="M5.62266 34.4719C6.84459 34.4719 7.83516 33.4827 7.83516 32.2625C7.83516 31.0423 6.84459 30.0531 5.62266 30.0531C4.40073 30.0531 3.41016 31.0423 3.41016 32.2625C3.41016 33.4827 4.40073 34.4719 5.62266 34.4719Z" fill="#ED6C30"/>
<path d="M39.8961 28.0062C39.8961 33.4062 35.5148 37.7781 30.1211 37.7781C24.718 37.7781 20.3398 33.4062 20.3398 28.0062C20.3398 22.6062 24.718 18.2375 30.1211 18.2375C35.5148 18.2375 39.8961 22.6062 39.8961 28.0062Z" fill="#2F2F2F"/>
<path d="M34.8059 28.0062C34.8059 30.5937 32.709 32.6906 30.1215 32.6906C27.5371 32.6906 25.4434 30.5937 25.4434 28.0062C25.4434 25.4187 27.5371 23.3312 30.1215 23.3312C32.709 23.3312 34.8059 25.4187 34.8059 28.0062Z" fill="#ED6C30"/>
</svg>
