<svg width="32" height="32" viewBox="0 0 32 32" fill="none" xmlns="http://www.w3.org/2000/svg">
<g id="Group icon 1">
<rect width="32" height="32" rx="16" fill="#F5F5F5"/>
<g id="atlanta ballers">
<g id="Group">
<path id="Vector" d="M18.8274 25.9703C18.7735 25.9703 18.6927 25.9387 18.6388 25.907C18.531 25.8122 18.4771 25.6857 18.5041 25.5593C18.5041 25.5277 19.1776 22.1451 15.1906 18.4463C15.0559 18.3199 15.0559 18.0986 15.1637 17.9721C15.2714 17.814 15.4869 17.814 15.5947 17.9405C18.7735 20.9121 19.2045 23.6625 19.1776 24.9903C21.7368 23.0618 23.1645 21.0702 23.4608 19.047C23.7033 17.1818 22.8412 16.0437 22.8143 15.9805C22.7066 15.8224 22.7335 15.6327 22.8412 15.5063C22.9759 15.3798 23.1645 15.4114 23.2723 15.5379C23.3261 15.6011 24.3498 16.9605 24.0535 19.1102C23.7302 21.4496 22.0331 23.7573 18.9351 25.9387C18.962 25.9387 18.8812 25.9703 18.8274 25.9703Z" fill="#D0D0D0"/>
<path id="Vector_2" d="M16.0297 25.9704C15.9489 25.9704 15.895 25.9387 15.8142 25.8755C15.7064 25.7807 15.6795 25.6226 15.7334 25.4645C15.7873 25.3381 16.9187 22.5245 13.8746 18.7625C13.7668 18.6045 13.7669 18.4148 13.9015 18.2883C14.0362 18.1619 14.2248 18.1619 14.3326 18.32C16.5954 21.1335 16.7301 23.5045 16.5416 24.7691C21.6869 20.4697 21.202 16.8657 21.202 16.8341C21.175 16.6761 21.2559 16.5496 21.3636 16.4548C21.4983 16.3915 21.633 16.4232 21.7408 16.518C25.1889 20.6277 22.8183 23.1252 22.8183 23.1568C22.6836 23.2832 22.495 23.2832 22.3603 23.1568C22.2526 23.0303 22.2526 22.809 22.3603 22.6826C22.4412 22.5877 24.0306 20.849 21.7946 17.7193C21.633 19.2684 20.7171 22.4297 16.1644 25.9071C16.1375 25.9387 16.0836 25.9704 16.0297 25.9704Z" fill="#D0D0D0"/>
<path id="Vector_3" d="M21.2833 25.9724H21.2025C21.0409 25.9091 20.9331 25.7195 20.987 25.5614C21.014 25.4349 21.7682 22.3368 18.2392 18.7645C17.9699 19.871 17.1078 22.2736 14.6025 24.613C14.4678 24.7394 14.2792 24.7078 14.1715 24.5814C14.0637 24.4233 14.0637 24.2336 14.1984 24.1072C17.3233 21.1988 17.7544 18.1007 17.7544 18.0691C17.7813 17.9426 17.8352 17.8478 17.9429 17.7845C18.0507 17.7529 18.1584 17.7529 18.2662 17.8478C22.5764 21.8626 21.6605 25.5614 21.6066 25.7195C21.5527 25.8775 21.418 25.9724 21.2833 25.9724Z" fill="#D0D0D0"/>
</g>
<path id="Vector_4" d="M15.6756 19.3934C12.2544 19.3934 12.6854 17.4334 13.1434 16.7063C14.4095 14.7147 19.2046 12.6914 21.7369 12.6914C24.6463 12.6914 24.1883 14.5882 23.5687 15.5366C22.1948 17.7179 18.2079 19.3934 15.6756 19.3934ZM21.7369 13.6714C19.6626 13.6714 15.8373 15.3153 14.5711 16.7379C14.3287 17.0224 13.8707 17.7811 15.7026 17.7811C17.9654 17.7811 21.4136 16.1373 22.4642 14.683C22.8144 14.1456 23.003 13.6714 21.7369 13.6714Z" fill="#ED4C5C"/>
<path id="Vector_5" d="M13.3878 19.6453C16.3634 19.6453 18.7755 16.8146 18.7755 13.3227C18.7755 9.83075 16.3634 7 13.3878 7C10.4122 7 8 9.83075 8 13.3227C8 16.8146 10.4122 19.6453 13.3878 19.6453Z" fill="#FF8736"/>
<g id="Group_2">
<path id="Vector_6" d="M9.56245 8.89743C9.67021 9.43486 9.85878 9.90906 10.0743 10.3833C10.2898 10.8575 10.5323 11.3317 10.7747 11.7742C11.2865 12.6594 11.8253 13.5446 12.418 14.3665C13.0106 15.1885 13.6302 15.9788 14.3037 16.7059C14.6539 17.0537 15.0041 17.4014 15.3812 17.6859C15.7584 18.002 16.1625 18.2233 16.6204 18.3814C16.1625 18.3498 15.7045 18.1285 15.2735 17.8756C14.8425 17.6227 14.4653 17.3066 14.0882 16.9588C13.3608 16.2633 12.6874 15.473 12.0947 14.651C11.5021 13.7975 10.9633 12.9123 10.5053 11.9323C10.2898 11.4897 10.0743 10.9839 9.88572 10.4781C9.72409 9.97228 9.58939 9.43486 9.56245 8.89743ZM8 13.1652C8.32327 13.9556 8.72735 14.6827 9.21225 15.2833C9.72409 15.884 10.3167 16.3582 10.9902 16.7059C11.6367 17.0537 12.3641 17.3066 13.0376 17.6543C13.3878 17.844 13.738 18.0337 14.0343 18.3498C14.3306 18.6343 14.5461 19.0769 14.6 19.4879C14.4653 19.0769 14.2229 18.7608 13.9266 18.5395C13.6302 18.3182 13.28 18.1601 12.9298 18.0337C12.2294 17.7491 11.5021 17.5279 10.8016 17.1485C10.1012 16.7691 9.4547 16.2633 8.9698 15.5678C8.4849 14.8407 8.16163 14.0188 8 13.1652ZM17.7249 17.0853C17.2939 17.3066 16.7821 17.4014 16.2972 17.1485C15.8123 16.8956 15.5429 16.3265 15.3543 15.8207C14.9772 14.7459 14.8425 13.6394 14.6539 12.5646C14.4653 11.4897 14.2498 10.4149 13.8457 9.46647C13.4417 8.51807 12.7682 7.66452 11.8792 7.28516C12.3372 7.41161 12.7951 7.66452 13.1723 8.01226C13.5494 8.36001 13.8727 8.83421 14.1151 9.3084C14.6 10.2884 14.8425 11.4265 15.058 12.5013L15.3274 14.1452C15.4082 14.6827 15.5159 15.2201 15.6776 15.7259C15.8392 16.2317 16.0278 16.7059 16.4049 16.9904C16.7551 17.2433 17.267 17.2117 17.7249 17.0853Z" fill="#231F20"/>
<path id="Vector_7" d="M16.5119 8.16992C16.7544 8.3596 16.943 8.64412 17.0777 8.96025C17.2124 9.27639 17.347 9.59252 17.4279 9.94026C17.6164 10.6041 17.6973 11.2996 17.7242 12.0267C17.7781 13.4177 17.4817 14.9035 16.8083 16.1048C16.4581 16.7055 16.027 17.2113 15.5152 17.6223C15.0034 18.0333 14.4376 18.3178 13.845 18.4758C12.6866 18.8236 11.4474 18.792 10.2891 18.5707C11.4744 18.6023 12.6597 18.5391 13.7372 18.1281C14.8417 17.7171 15.8115 16.9584 16.4311 15.8519C17.0777 14.7455 17.347 13.3861 17.374 12.0584C17.374 11.3945 17.3201 10.699 17.2124 10.0351C17.1046 9.33961 16.943 8.64412 16.5119 8.16992Z" fill="#231F20"/>
</g>
</g>
</g>
</svg>
