<svg width="40" height="40" viewBox="0 0 40 40" fill="none" xmlns="http://www.w3.org/2000/svg">
<g id="Property detail nav bar/farmer">
<path id="Vector" d="M39.9998 40V37.7778C39.9998 36.0096 39.2974 34.3139 38.0472 33.0637C36.7969 31.8135 35.1012 31.1111 33.3331 31.1111H15.5553C13.7872 31.1111 12.0915 31.8135 10.8413 33.0637C9.59105 34.3139 8.88867 36.0096 8.88867 37.7778V40H39.9998Z" fill="#77B255"/>
<path id="Vector_2" d="M24.4442 37.7778C25.2964 37.7778 29.9998 34.4444 29.9998 31.1111H18.8887C18.8887 34.4444 23.592 37.7778 24.4442 37.7778Z" fill="#3E721D"/>
<path id="Vector_3" d="M19.5996 31.1533C19.5996 34.3156 29.2885 34.4445 29.2885 31.1533V26.9878H19.5996V31.1533Z" fill="#FFDC5D"/>
<path id="Vector_4" d="M19.5918 28.8589C20.9429 30.3855 22.6185 30.7989 24.4407 30.7989C26.2629 30.7989 27.9374 30.3855 29.2896 28.8589V24.98H19.5918V28.8589Z" fill="#F9CA55"/>
<path id="Vector_5" d="M27.9462 3.66668C25.8073 2.97446 21.4173 3.15557 20.1595 4.79112C18.0784 4.83112 18.3862 8.91335 14.4784 8.08779C13.6584 9.20335 13.0795 10.53 12.8962 11.95C12.3984 15.8111 13.1573 17.3656 13.5529 20.2678C14.0006 23.5567 15.8495 24.6089 17.3273 25.0489C19.454 27.8589 21.7151 27.7389 25.5117 27.7389C32.9251 27.7389 35.8129 22.7856 36.1251 14.3611C36.214 11.9645 35.5995 9.84223 34.3651 8.08446C30.1017 9.74001 30.7951 4.5889 27.9462 3.66668Z" fill="#FFAC33"/>
<path id="Vector_6" d="M32.8292 14.7145C32.1114 13.7211 31.1936 12.9211 29.1803 12.6389C29.9358 12.9845 31.2625 15.0856 31.357 15.7467C31.4514 16.4078 31.5458 16.9422 30.9481 16.2811C28.5536 13.6345 25.3425 13.7711 22.7592 12.1545C20.9547 11.0256 20.4047 9.77557 20.4047 9.77557C20.4047 9.77557 20.1847 11.4422 17.4481 13.1411C16.6547 13.6334 15.7081 14.73 15.1836 16.35C14.8058 17.5145 14.9236 18.5522 14.9236 20.3256C14.9236 25.5034 19.1914 29.8567 24.4547 29.8567C29.7181 29.8567 33.9858 25.4645 33.9858 20.3256C33.9836 17.1056 33.647 15.8478 32.8292 14.7145Z" fill="#FFDC5D"/>
<path id="Vector_7" d="M25.513 22.9744H23.3952C23.2547 22.9744 23.1199 22.9186 23.0205 22.8192C22.9211 22.7198 22.8652 22.585 22.8652 22.4444C22.8652 22.3039 22.9211 22.1691 23.0205 22.0697C23.1199 21.9703 23.2547 21.9144 23.3952 21.9144H25.513C25.6536 21.9144 25.7884 21.9703 25.8878 22.0697C25.9872 22.1691 26.043 22.3039 26.043 22.4444C26.043 22.585 25.9872 22.7198 25.8878 22.8192C25.7884 22.9186 25.6536 22.9744 25.513 22.9744Z" fill="#C1694F"/>
<path id="Vector_8" d="M20.2171 19.2678C19.9363 19.2678 19.6669 19.1562 19.4683 18.9576C19.2698 18.7591 19.1582 18.4897 19.1582 18.2089V17.15C19.1582 16.8692 19.2698 16.5998 19.4683 16.4013C19.6669 16.2027 19.9363 16.0911 20.2171 16.0911C20.4979 16.0911 20.7673 16.2027 20.9658 16.4013C21.1644 16.5998 21.276 16.8692 21.276 17.15V18.2089C21.276 18.4897 21.1644 18.7591 20.9658 18.9576C20.7673 19.1562 20.4979 19.2678 20.2171 19.2678ZM28.6904 19.2678C28.4096 19.2678 28.1403 19.1562 27.9417 18.9576C27.7431 18.7591 27.6315 18.4897 27.6315 18.2089V17.15C27.6315 16.8692 27.7431 16.5998 27.9417 16.4013C28.1403 16.2027 28.4096 16.0911 28.6904 16.0911C28.9713 16.0911 29.2406 16.2027 29.4392 16.4013C29.6378 16.5998 29.7493 16.8692 29.7493 17.15V18.2089C29.7493 18.4897 29.6378 18.7591 29.4392 18.9576C29.2406 19.1562 28.9713 19.2678 28.6904 19.2678Z" fill="#662113"/>
<path id="Vector_9" d="M24.5943 27.3967C21.5343 27.3967 20.5943 26.6133 20.4376 26.4544C20.3683 26.3886 20.3126 26.3098 20.2738 26.2225C20.2349 26.1352 20.2137 26.0411 20.2112 25.9455C20.2062 25.7526 20.278 25.5655 20.4109 25.4256C20.5438 25.2856 20.7269 25.2041 20.9199 25.1991C21.1128 25.1941 21.2999 25.266 21.4398 25.3989C21.4976 25.44 22.2409 25.94 24.5943 25.94C27.0387 25.94 27.7454 25.4011 27.752 25.3956C27.8193 25.3293 27.8992 25.2771 27.9868 25.242C28.0745 25.2069 28.1683 25.1896 28.2628 25.1911C28.3572 25.1927 28.4504 25.213 28.5369 25.251C28.6234 25.289 28.7014 25.3438 28.7665 25.4122C28.9012 25.5535 28.975 25.7419 28.9721 25.9371C28.9692 26.1322 28.8898 26.3184 28.7509 26.4556C28.5932 26.6133 27.6543 27.3967 24.5943 27.3967Z" fill="#C1694F"/>
<path id="Vector_10" d="M14.4453 31.1111H17.7786V40H14.4453V31.1111ZM31.112 31.1111H34.4453V40H31.112V31.1111Z" fill="#3B88C3"/>
<path id="Vector_11" d="M14.584 38.8889H34.4451V40H14.584V38.8889Z" fill="#3B88C3"/>
<path id="Vector_12" d="M33.3325 9.77778C33.3325 11.2444 29.8969 12.2222 24.4436 12.2222C18.9891 12.2222 15.5547 11.2444 15.5547 9.77778C15.5547 5.83667 19.9991 0 21.4802 0C22.9614 0 23.9502 1.95556 24.4436 1.95556C24.9369 1.95556 25.9247 0 27.4069 0C28.8891 0 33.3325 5.83667 33.3325 9.77778Z" fill="#C1694F"/>
<path id="Vector_13" d="M39.9353 8.88891C39.9353 10.73 36.0464 15.5556 24.3798 15.5556C12.7131 15.5556 8.82422 10.73 8.82422 8.88891C8.82422 7.0478 16.402 7.7778 24.3798 7.7778C32.3576 7.7778 39.9353 7.0478 39.9353 8.88891Z" fill="#C1694F"/>
<path id="Vector_14" d="M33.3325 9.77777C33.3325 11.2444 29.8969 12.2222 24.4436 12.2222C18.9891 12.2222 15.5547 11.2444 15.5547 9.77777C15.5547 9.14888 15.668 8.47222 15.8647 7.77777C18.518 9.99999 30.3691 9.99999 33.0236 7.78222C33.218 8.47444 33.3325 9.14999 33.3325 9.77777Z" fill="#292F33"/>
<path id="Vector_15" d="M7.77778 35.2778C7.77778 34.9094 7.63145 34.5562 7.37098 34.2957C7.11051 34.0352 6.75725 33.8889 6.38889 33.8889C6.02053 33.8889 5.66726 34.0352 5.4068 34.2957C5.14633 34.5562 5 34.9094 5 35.2778V40H7.77778V35.2778Z" fill="#C1694F"/>
<path id="Vector_16" d="M11.1144 25.2778C11.1144 27.8889 8.99889 30.0034 6.38889 30.0034C3.77889 30.0034 1.66333 27.8889 1.66333 25.2778C1.66333 25.1823 0 25.1845 0 25.2778C0 26.9722 0.673113 28.5973 1.87126 29.7954C3.06941 30.9936 4.69445 31.6667 6.38889 31.6667C8.08333 31.6667 9.70837 30.9936 10.9065 29.7954C12.1047 28.5973 12.7778 26.9722 12.7778 25.2778C12.7778 25.1845 11.1144 25.1823 11.1144 25.2778Z" fill="#66757F"/>
<path id="Vector_17" d="M1.66667 25.2778C1.66667 25.4988 1.57887 25.7108 1.42259 25.867C1.26631 26.0233 1.05435 26.1111 0.833333 26.1111C0.61232 26.1111 0.400358 26.0233 0.244078 25.867C0.0877974 25.7108 0 25.4988 0 25.2778L0 15.8333C0 15.6123 0.0877974 15.4004 0.244078 15.2441C0.400358 15.0878 0.61232 15 0.833333 15C1.05435 15 1.26631 15.0878 1.42259 15.2441C1.57887 15.4004 1.66667 15.6123 1.66667 15.8333V25.2778ZM12.7778 25.2778C12.7778 25.4988 12.69 25.7108 12.5337 25.867C12.3774 26.0233 12.1655 26.1111 11.9444 26.1111C11.7234 26.1111 11.5115 26.0233 11.3552 25.867C11.1989 25.7108 11.1111 25.4988 11.1111 25.2778V15.8333C11.1111 15.6123 11.1989 15.4004 11.3552 15.2441C11.5115 15.0878 11.7234 15 11.9444 15C12.1655 15 12.3774 15.0878 12.5337 15.2441C12.69 15.4004 12.7778 15.6123 12.7778 15.8333V25.2778ZM7.22222 34.4444C7.22222 34.6655 7.13442 34.8774 6.97814 35.0337C6.82186 35.19 6.6099 35.2778 6.38889 35.2778C6.16787 35.2778 5.95591 35.19 5.79963 35.0337C5.64335 34.8774 5.55556 34.6655 5.55556 34.4444V15.8333C5.55556 15.6123 5.64335 15.4004 5.79963 15.2441C5.95591 15.0878 6.16787 15 6.38889 15C6.6099 15 6.82186 15.0878 6.97814 15.2441C7.13442 15.4004 7.22222 15.6123 7.22222 15.8333V34.4444Z" fill="#66757F"/>
</g>
</svg>
