<svg width="32" height="32" viewBox="0 0 32 32" fill="none" xmlns="http://www.w3.org/2000/svg">
<g id="Group icon 1">
<rect width="32" height="32" rx="16" fill="#F5F5F5"/>
<g id="&#240;&#159;&#166;&#134; emoji &#34;seedling&#34;">
<path id="Vector" d="M20.5565 18.0986C18.1048 18.0986 17.4613 15.7871 17.4613 15.7871C17.4613 15.7871 18.1048 12.8802 20.5565 12.8802C22.2419 12.8802 25 15.5069 25 15.5069C25 15.5069 22.2419 18.0986 20.5565 18.0986ZM11.2097 6.99631C13.1403 9.23779 12.0065 11.7594 12.0065 11.7594C12.0065 11.7594 9.64677 13.3005 7.71613 11.059C6.39839 9.51797 6 5 6 5C6 5 9.89194 5.4553 11.2097 6.99631Z" fill="#83BF4F"/>
<g id="Group">
<path id="Vector_2" d="M24.9998 15.506C23.4675 15.1558 21.9046 14.9456 20.3724 15.1558C18.8708 15.3309 17.3385 15.9613 16.3272 17.1521C15.8063 17.7475 15.4385 18.4479 15.2546 19.2184C15.224 19.3936 15.1933 19.6037 15.1627 19.7788C15.1321 19.9889 15.1627 20.129 15.1627 20.3742L15.224 21.7051L15.4385 27.0636H13.9062L14.1514 21.7051L14.2127 20.3742C14.2127 20.1641 14.2433 19.8839 14.274 19.6387C14.3046 19.3936 14.3659 19.1484 14.4272 18.9032C14.703 17.9576 15.224 17.1521 15.8675 16.5567C16.5111 15.9263 17.2466 15.506 18.0127 15.1908C18.7788 14.9106 19.5756 14.7705 20.3724 14.7355C21.9353 14.6654 23.4982 15.0157 24.9998 15.506Z" fill="#75A843"/>
<path id="Vector_3" d="M6 5C7.59355 6.12074 9.06452 7.52166 10.3516 9.0977C11.6387 10.6737 12.8032 12.3899 13.7532 14.2811C14.2129 15.2267 14.6726 16.2074 14.9484 17.3281C15.0097 17.6083 15.071 17.8885 15.1016 18.2037L15.1323 19.0442L15.1935 20.6553L15.4387 27.0645H13.9065L14.1516 20.6203L14.2129 19.0092L14.2435 18.624V18.2387C14.2435 18.0286 14.2129 17.7834 14.1516 17.5382C13.9677 16.5576 13.6 15.577 13.171 14.6313C12.3435 12.7401 11.271 10.9889 10.0758 9.34286C8.91129 7.69677 7.5629 6.22581 6 5Z" fill="#75A843"/>
</g>
</g>
</g>
</svg>
