<svg width="30" height="35" viewBox="0 0 30 35" fill="none" xmlns="http://www.w3.org/2000/svg">
<g id="Group">
<path id="Vector" fill-rule="evenodd" clip-rule="evenodd" d="M3.33333 0C2.44928 0 1.60143 0.351189 0.976311 0.976311C0.351189 1.60143 0 2.44928 0 3.33333V26.6667C0 27.5507 0.351189 28.3986 0.976311 29.0237C1.60143 29.6488 2.44928 30 3.33333 30H11.6667C12.5507 30 13.3986 29.6488 14.0237 29.0237C14.6488 28.3986 15 27.5507 15 26.6667V15H26.6667C27.5507 15 28.3986 14.6488 29.0237 14.0237C29.6488 13.3986 30 12.5507 30 11.6667V3.33333C30 2.44928 29.6488 1.60143 29.0237 0.976311C28.3986 0.351189 27.5507 0 26.6667 0H3.33333ZM6.66667 3.33333V5C6.66667 5.44203 6.84226 5.86595 7.15482 6.17851C7.46738 6.49107 7.89131 6.66667 8.33333 6.66667C8.77536 6.66667 9.19928 6.49107 9.51184 6.17851C9.8244 5.86595 10 5.44203 10 5V3.33333H13.3333V5C13.3333 5.44203 13.5089 5.86595 13.8215 6.17851C14.134 6.49107 14.558 6.66667 15 6.66667C15.442 6.66667 15.8659 6.49107 16.1785 6.17851C16.4911 5.86595 16.6667 5.44203 16.6667 5V3.33333H20V5C20 5.44203 20.1756 5.86595 20.4882 6.17851C20.8007 6.49107 21.2246 6.66667 21.6667 6.66667C22.1087 6.66667 22.5326 6.49107 22.8452 6.17851C23.1577 5.86595 23.3333 5.44203 23.3333 5V3.33333H26.6667V11.6667H14.1667C13.5036 11.6667 12.8677 11.9301 12.3989 12.3989C11.9301 12.8677 11.6667 13.5036 11.6667 14.1667V26.6667H3.33333V23.3333H5C5.44203 23.3333 5.86595 23.1577 6.17851 22.8452C6.49107 22.5326 6.66667 22.1087 6.66667 21.6667C6.66667 21.2246 6.49107 20.8007 6.17851 20.4882C5.86595 20.1756 5.44203 20 5 20H3.33333V16.6667H5C5.44203 16.6667 5.86595 16.4911 6.17851 16.1785C6.49107 15.8659 6.66667 15.442 6.66667 15C6.66667 14.558 6.49107 14.134 6.17851 13.8215C5.86595 13.5089 5.44203 13.3333 5 13.3333H3.33333V10H5C5.44203 10 5.86595 9.8244 6.17851 9.51184C6.49107 9.19928 6.66667 8.77536 6.66667 8.33333C6.66667 7.89131 6.49107 7.46738 6.17851 7.15482C5.86595 6.84226 5.44203 6.66667 5 6.66667H3.33333V3.33333H6.66667Z" fill="#2D88B9"/>
</g>
</svg>
